<?xml version="1.0" encoding="utf-8"?>
<!-- Generator: Adobe Illustrator 28.0.0, SVG Export Plug-In . SVG Version: 6.00 Build 0)  -->
<svg version="1.1" id="Layer_1" xmlns="http://www.w3.org/2000/svg" xmlns:xlink="http://www.w3.org/1999/xlink" x="0px" y="0px"
	 viewBox="0 0 24 24" style="enable-background:new 0 0 24 24;" xml:space="preserve">
<style type="text/css">
	.st0{fill:#7C7C7C;}
</style>
<path class="st0" d="M14.5,18c-0.7,0-1.3-0.2-1.8-0.7c-0.5-0.5-0.7-1.1-0.7-1.8c0-0.7,0.2-1.3,0.7-1.8c0.5-0.5,1.1-0.7,1.8-0.7
	s1.3,0.2,1.8,0.7c0.5,0.5,0.7,1.1,0.7,1.8c0,0.7-0.2,1.3-0.7,1.8C15.8,17.8,15.2,18,14.5,18z M5,22c-0.5,0-1-0.2-1.4-0.6
	S3,20.5,3,20V6c0-0.5,0.2-1,0.6-1.4C4,4.2,4.5,4,5,4h1V2h2v2h8V2h2v2h1c0.6,0,1,0.2,1.4,0.6C20.8,5,21,5.4,21,6v14
	c0,0.5-0.2,1-0.6,1.4S19.6,22,19,22H5z M5,20h14V10H5V20z M5,8h14V6H5V8z M5,8V6V8z"/>
</svg>
